<svg fill="none" height="24" viewBox="0 0 24 24" width="24" xmlns="http://www.w3.org/2000/svg"><g stroke="#292d32" stroke-linecap="round" stroke-linejoin="round" stroke-miterlimit="10" stroke-width="1.5"><path d="m22 6.25v5.1c0 1.27-.42 2.34-1.17 3.08-.74.75-1.81 1.17-3.08 1.17v1.81c0 .68-.76 1.09-1.32.71l-.97-.64c.09-.31.13-.65.13-1.01v-4.07c0-2.04-1.36-3.4-3.4-3.4h-6.79001c-.14 0-.26999.01002-.39999.02002v-2.77002c0-2.55 1.7-4.25 4.25-4.25h8.5c2.55 0 4.25 1.7 4.25 4.25z"/><path d="m15.59 12.4v4.07c0 .36-.04.7-.13 1.01-.37 1.47-1.59 2.39-3.27 2.39h-2.72l-3.02 2.01c-.45.31-1.05001-.02-1.05001-.56v-1.45c-1.02 0-1.86999-.34-2.45999-.93-.6-.6-.94-1.45-.94-2.47v-4.07c0-1.9 1.18-3.20998 3-3.37998.13-.01.25999-.02002.39999-.02002h6.79001c2.04 0 3.4 1.36 3.4 3.4z"/></g></svg>