<svg height="56" viewBox="0 0 56 56" width="56" xmlns="http://www.w3.org/2000/svg"><path d="m27.9999 51.9063c13.0547 0 23.9064-10.8282 23.9064-23.9063 0-13.0547-10.8751-23.9063-23.9298-23.9063-13.0782 0-23.8828 10.8516-23.8828 23.9063 0 13.0781 10.8281 23.9063 23.9062 23.9063zm-.4453-18.8204c-1.2891 0-1.9688-.6562-1.9688-1.9218v-.3282c0-2.414 1.2891-3.7265 3.0704-4.9453 2.1796-1.4765 3.1874-2.3203 3.1874-4.0078 0-1.8516-1.4531-3.1172-3.7031-3.1172-1.6171 0-2.8593.8203-3.6093 2.1563-.7969.9375-1.0313 1.664-2.4376 1.664-.7968 0-1.6874-.5859-1.6874-1.6875 0-.4218.0937-.8203.2109-1.2187.6328-2.2734 3.4687-4.2422 7.6875-4.2422 4.1953 0 7.8281 2.1797 7.8281 6.2578 0 2.9531-1.7109 4.3594-4.1015 5.9766-1.6876 1.1484-2.5313 1.9922-2.5313 3.375v.3047c0 .9609-.7266 1.7343-1.9453 1.7343zm.0703 7.0547c-1.3359 0-2.625-1.0781-2.625-2.5312s1.2656-2.5313 2.625-2.5313c1.3828 0 2.625 1.0547 2.625 2.5313 0 1.4765-1.2656 2.5312-2.625 2.5312z"/></svg>